<?xml version="1.0" standalone="no"?>
<!DOCTYPE svg PUBLIC "-//W3C//DTD SVG 20010904//EN"
 "http://www.w3.org/TR/2001/REC-SVG-20010904/DTD/svg10.dtd">
<svg version="1.0" xmlns="http://www.w3.org/2000/svg"
 width="512.000000pt" height="512.000000pt" viewBox="0 0 512.000000 512.000000"
 preserveAspectRatio="xMidYMid meet">
<metadata>
Created by potrace 1.11, written by Peter Selinger 2001-2013
</metadata>
<g transform="translate(0.000000,512.000000) scale(0.100000,-0.100000)"
fill="#000000" stroke="none">
<path d="M655 4674 c-101 -32 -172 -107 -201 -213 -33 -119 11 -248 110 -320
48 -34 115 -61 150 -61 25 0 40 -15 461 -460 158 -168 338 -357 399 -420 119
-124 445 -466 539 -566 l57 -61 -52 -49 c-92 -86 -665 -631 -873 -829 -110
-105 -321 -306 -468 -446 -231 -218 -272 -262 -298 -314 -42 -86 -48 -163 -19
-256 19 -63 30 -81 84 -135 54 -54 72 -65 135 -84 93 -29 170 -23 256 19 52
26 95 67 314 298 140 147 300 315 356 373 91 94 821 862 920 968 l40 42 785
-825 c710 -747 791 -829 845 -856 86 -42 163 -48 256 -19 63 19 81 30 135 84
54 54 65 72 84 135 29 93 23 170 -19 256 -26 52 -67 95 -298 314 -147 140
-315 300 -373 356 -90 87 -813 774 -968 919 l-52 49 57 61 c75 80 398 419 539
566 61 63 241 252 400 420 468 494 429 457 474 463 22 3 60 15 84 27 252 122
221 487 -48 565 -173 50 -360 -69 -383 -245 -6 -44 33 -5 -463 -475 -168 -159
-399 -379 -515 -490 -115 -111 -284 -272 -375 -358 l-165 -156 -65 62 c-193
183 -468 445 -570 543 -63 61 -252 241 -420 400 -494 468 -457 430 -463 474
-12 90 -90 195 -173 231 -61 27 -157 33 -219 13z m182 -208 c96 -105 -29 -257
-157 -191 -38 20 -60 63 -60 116 0 35 6 47 40 81 39 39 42 40 92 36 44 -5 57
-11 85 -42z m3636 5 c28 -28 32 -38 32 -86 0 -48 -4 -58 -31 -86 -59 -58 -164
-48 -199 21 -31 61 -11 145 43 175 45 25 117 14 155 -24z m-3108 -622 c165
-156 312 -295 326 -309 271 -255 739 -705 739 -711 0 -4 -30 -34 -67 -68 l-68
-60 -42 42 c-22 23 -330 345 -682 716 l-641 675 32 33 32 33 36 -33 c19 -19
170 -161 335 -318z m2802 251 c-62 -66 -431 -454 -608 -640 -97 -102 -730
-768 -1407 -1480 -677 -712 -1250 -1310 -1272 -1328 -105 -82 -260 -4 -260
130 0 29 7 62 17 79 10 16 172 176 362 356 189 181 972 925 1740 1656 l1395
1327 33 -32 33 -32 -33 -36z m-1263 -1717 c755 -714 1576 -1500 1589 -1522 41
-69 13 -168 -62 -218 -42 -28 -119 -31 -162 -6 -16 9 -349 355 -741 768 -392
412 -741 779 -775 815 l-61 64 71 77 c40 43 74 78 76 78 2 1 32 -25 65 -56z"/>
</g>
</svg>
